<svg xmlns="http://www.w3.org/2000/svg" viewBox="0 0 390 1050" width="390" height="1050">
  <defs>
    <style>
      .title { font-family: Arial, sans-serif; font-size: 18px; font-weight: bold; fill: #FFF; }
      .subtitle-w { font-family: Arial, sans-serif; font-size: 13px; fill: rgba(255,255,255,0.7); }
      .label { font-family: Arial, sans-serif; font-size: 14px; font-weight: 600; fill: #374151; }
      .hint { font-family: Arial, sans-serif; font-size: 13px; fill: #94A3B8; }
      .btn-text { font-family: Arial, sans-serif; font-size: 16px; font-weight: 600; fill: #FFF; }
      .step-text { font-family: Arial, sans-serif; font-size: 16px; font-weight: 600; fill: #64748B; }
      .step-label { font-family: Arial, sans-serif; font-size: 11px; }
      .badge { font-family: Arial, sans-serif; font-size: 11px; fill: #94A3B8; font-weight: 500; }
      .small { font-family: Arial, sans-serif; font-size: 12px; fill: #94A3B8; }
    </style>
  </defs>

  <!-- Background -->
  <rect width="390" height="1050" fill="#FFF"/>

  <!-- AppBar -->
  <text x="20" y="44" font-family="Arial, sans-serif" font-size="22" fill="#1E293B">‹</text>
  <text x="160" y="44" class="step-text" text-anchor="middle">Étape 1/4</text>

  <!-- Progress bar -->
  <rect x="24" y="62" width="82" height="4" rx="2" fill="#2563EB"/>
  <rect x="112" y="62" width="82" height="4" rx="2" fill="#E2E8F0"/>
  <rect x="200" y="62" width="82" height="4" rx="2" fill="#E2E8F0"/>
  <rect x="288" y="62" width="82" height="4" rx="2" fill="#E2E8F0"/>

  <!-- Step labels -->
  <text x="44" y="82" class="step-label" fill="#2563EB" font-weight="600" text-anchor="middle">Personnel</text>
  <text x="150" y="82" class="step-label" fill="#94A3B8" text-anchor="middle">Entreprise</text>
  <text x="240" y="82" class="step-label" fill="#94A3B8" text-anchor="middle">Documents</text>
  <text x="338" y="82" class="step-label" fill="#94A3B8" text-anchor="middle">Confirmation</text>

  <!-- Header card -->
  <rect x="24" y="100" width="342" height="72" rx="16" fill="url(#grad1)"/>
  <defs>
    <linearGradient id="grad1" x1="0%" y1="0%" x2="100%" y2="0%">
      <stop offset="0%" style="stop-color:#2563EB"/>
      <stop offset="100%" style="stop-color:#1D4ED8"/>
    </linearGradient>
  </defs>
  <rect x="36" y="112" width="48" height="48" rx="12" fill="rgba(255,255,255,0.2)"/>
  <text x="60" y="143" font-family="Arial, sans-serif" font-size="24" fill="#FFF" text-anchor="middle">👤</text>
  <text x="96" y="133" class="title">Informations personnelles</text>
  <text x="96" y="152" class="subtitle-w">Vos coordonnées en tant que gérant</text>

  <!-- Nom + Prénom -->
  <text x="24" y="200" class="label">Nom *</text>
  <rect x="24" y="210" width="163" height="48" rx="12" fill="#F8FAFC" stroke="#E2E8F0" stroke-width="1"/>
  <text x="40" y="240" class="hint">Diallo</text>

  <text x="203" y="200" class="label">Prénom *</text>
  <rect x="203" y="210" width="163" height="48" rx="12" fill="#F8FAFC" stroke="#E2E8F0" stroke-width="1"/>
  <text x="219" y="240" class="hint">Amadou</text>

  <!-- Téléphone -->
  <text x="24" y="286" class="label">Téléphone *</text>
  <rect x="24" y="296" width="342" height="48" rx="12" fill="#F8FAFC" stroke="#E2E8F0" stroke-width="1"/>
  <rect x="36" y="308" width="52" height="24" rx="4" fill="#F1F5F9"/>
  <rect x="42" y="314" width="24" height="12" rx="2" fill="#00853F"/>
  <text x="66" y="325" font-family="Arial, sans-serif" font-size="12" fill="#374151">▼</text>
  <text x="100" y="326" class="hint">+221 77 123 45 67</text>

  <!-- Email (optional) -->
  <text x="24" y="372" class="label">Email</text>
  <rect x="55" y="359" width="62" height="18" rx="4" fill="#F1F5F9"/>
  <text x="86" y="372" class="badge" text-anchor="middle">Optionnel</text>
  <rect x="24" y="382" width="342" height="48" rx="12" fill="#F8FAFC" stroke="#E2E8F0" stroke-width="1"/>
  <text x="50" y="412" font-family="Arial, sans-serif" font-size="16" fill="#94A3B8">✉️</text>
  <text x="72" y="412" class="hint">exemple@email.com</text>

  <!-- Date de naissance -->
  <text x="24" y="458" class="label">Date de naissance *</text>
  <rect x="24" y="468" width="342" height="48" rx="12" fill="#F8FAFC" stroke="#E2E8F0" stroke-width="1"/>
  <text x="50" y="498" font-family="Arial, sans-serif" font-size="16" fill="#94A3B8">📅</text>
  <text x="72" y="498" class="hint">JJ/MM/AAAA</text>
  <text x="346" y="498" font-family="Arial, sans-serif" font-size="18" fill="#94A3B8" text-anchor="end">▾</text>

  <!-- Mot de passe -->
  <text x="24" y="544" class="label">Mot de passe *</text>
  <rect x="24" y="554" width="342" height="48" rx="12" fill="#F8FAFC" stroke="#E2E8F0" stroke-width="1"/>
  <text x="50" y="584" font-family="Arial, sans-serif" font-size="16" fill="#94A3B8">🔒</text>
  <text x="72" y="584" class="hint">Min. 8 caractères</text>
  <text x="346" y="584" font-family="Arial, sans-serif" font-size="16" fill="#94A3B8" text-anchor="end">👁️</text>

  <!-- Password strength indicators -->
  <circle cx="34" cy="622" r="6" fill="none" stroke="#94A3B8" stroke-width="1.5"/>
  <text x="48" y="626" class="small">Min. 8 caractères</text>
  <circle cx="190" cy="622" r="6" fill="none" stroke="#94A3B8" stroke-width="1.5"/>
  <text x="204" y="626" class="small">1 majuscule</text>
  <circle cx="34" cy="642" r="6" fill="none" stroke="#94A3B8" stroke-width="1.5"/>
  <text x="48" y="646" class="small">1 minuscule</text>
  <circle cx="190" cy="642" r="6" fill="none" stroke="#94A3B8" stroke-width="1.5"/>
  <text x="204" y="646" class="small">1 chiffre</text>
  <circle cx="34" cy="662" r="6" fill="none" stroke="#94A3B8" stroke-width="1.5"/>
  <text x="48" y="666" class="small">1 caractère spécial</text>

  <!-- Confirmer mot de passe -->
  <text x="24" y="700" class="label">Confirmer le mot de passe *</text>
  <rect x="24" y="710" width="342" height="48" rx="12" fill="#F8FAFC" stroke="#E2E8F0" stroke-width="1"/>
  <text x="50" y="740" font-family="Arial, sans-serif" font-size="16" fill="#94A3B8">🔒</text>
  <text x="72" y="740" class="hint">Confirmer</text>

  <!-- Bottom button -->
  <rect x="0" y="780" width="390" height="90" fill="#FFF" filter="url(#shadow)"/>
  <defs>
    <filter id="shadow" x="-2%" y="-10%" width="104%" height="120%">
      <feDropShadow dx="0" dy="-4" stdDeviation="5" flood-color="rgba(0,0,0,0.05)"/>
    </filter>
  </defs>
  <rect x="24" y="800" width="342" height="52" rx="12" fill="#2563EB"/>
  <text x="175" y="832" class="btn-text">Continuer</text>
  <text x="270" y="832" font-family="Arial, sans-serif" font-size="18" fill="#FFF">→</text>
</svg>
