<svg xmlns="http://www.w3.org/2000/svg" viewBox="0 0 390 920" width="390" height="920">
  <defs>
    <style>
      .title { font-family: Arial, sans-serif; font-size: 18px; font-weight: bold; fill: #FFF; }
      .subtitle-w { font-family: Arial, sans-serif; font-size: 13px; fill: rgba(255,255,255,0.7); }
      .label { font-family: Arial, sans-serif; font-size: 14px; font-weight: 600; fill: #374151; }
      .hint { font-family: Arial, sans-serif; font-size: 12px; fill: #94A3B8; }
      .btn-text { font-family: Arial, sans-serif; font-size: 16px; font-weight: 600; fill: #FFF; }
      .btn-outline { font-family: Arial, sans-serif; font-size: 16px; font-weight: 600; fill: #64748B; }
      .step-text { font-family: Arial, sans-serif; font-size: 16px; font-weight: 600; fill: #64748B; }
      .step-label { font-family: Arial, sans-serif; font-size: 11px; }
      .doc-title { font-family: Arial, sans-serif; font-size: 14px; font-weight: 600; fill: #374151; }
      .doc-sub { font-family: Arial, sans-serif; font-size: 12px; fill: #94A3B8; }
      .doc-title-ok { font-family: Arial, sans-serif; font-size: 14px; font-weight: 600; fill: #065F46; }
      .doc-sub-ok { font-family: Arial, sans-serif; font-size: 12px; fill: #10B981; }
      .info-text { font-family: Arial, sans-serif; font-size: 12px; fill: #92400E; }
      .format-label { font-family: Arial, sans-serif; font-size: 13px; font-weight: 600; fill: #374151; }
      .format-hint { font-family: Arial, sans-serif; font-size: 12px; fill: #64748B; }
      .format-badge { font-family: Arial, sans-serif; font-size: 11px; font-weight: 600; fill: #475569; }
      .required { font-family: Arial, sans-serif; font-size: 14px; font-weight: bold; fill: #EF4444; }
    </style>
    <linearGradient id="grad3" x1="0%" y1="0%" x2="100%" y2="0%">
      <stop offset="0%" style="stop-color:#10B981"/>
      <stop offset="100%" style="stop-color:#059669"/>
    </linearGradient>
    <filter id="shadow" x="-2%" y="-10%" width="104%" height="120%">
      <feDropShadow dx="0" dy="-4" stdDeviation="5" flood-color="rgba(0,0,0,0.05)"/>
    </filter>
  </defs>

  <!-- Background -->
  <rect width="390" height="920" fill="#FFF"/>

  <!-- AppBar -->
  <text x="20" y="44" font-family="Arial, sans-serif" font-size="22" fill="#1E293B">‹</text>
  <text x="160" y="44" class="step-text" text-anchor="middle">Étape 3/4</text>

  <!-- Progress bar -->
  <rect x="24" y="62" width="82" height="4" rx="2" fill="#2563EB"/>
  <rect x="112" y="62" width="82" height="4" rx="2" fill="#2563EB"/>
  <rect x="200" y="62" width="82" height="4" rx="2" fill="#2563EB"/>
  <rect x="288" y="62" width="82" height="4" rx="2" fill="#E2E8F0"/>

  <!-- Step labels -->
  <text x="44" y="82" class="step-label" fill="#10B981" text-anchor="middle">Personnel</text>
  <text x="150" y="82" class="step-label" fill="#10B981" text-anchor="middle">Entreprise</text>
  <text x="240" y="82" class="step-label" fill="#2563EB" font-weight="600" text-anchor="middle">Documents</text>
  <text x="338" y="82" class="step-label" fill="#94A3B8" text-anchor="middle">Confirmation</text>

  <!-- Header card (green) -->
  <rect x="24" y="100" width="342" height="72" rx="16" fill="url(#grad3)"/>
  <rect x="36" y="112" width="48" height="48" rx="12" fill="rgba(255,255,255,0.2)"/>
  <text x="60" y="143" font-family="Arial, sans-serif" font-size="24" fill="#FFF" text-anchor="middle">📂</text>
  <text x="96" y="133" class="title">Documents justificatifs</text>
  <text x="96" y="152" class="subtitle-w">Pour vérifier et sécuriser votre compte</text>

  <!-- Warning info box -->
  <rect x="24" y="188" width="342" height="52" rx="12" fill="#FFF7ED" stroke="#FED7AA" stroke-width="1"/>
  <text x="44" y="214" font-family="Arial, sans-serif" font-size="16">⚠️</text>
  <text x="66" y="209" class="info-text">Les documents peuvent être ajoutés plus tard.</text>
  <text x="66" y="225" class="info-text">Votre compte sera activé après vérification.</text>

  <!-- Document 1: Pièce d'identité (uploaded) -->
  <rect x="24" y="256" width="342" height="72" rx="16" fill="#F0FDF4" stroke="#86EFAC" stroke-width="2"/>
  <rect x="40" y="270" width="48" height="48" rx="12" fill="rgba(16,185,129,0.1)"/>
  <text x="64" y="300" font-family="Arial, sans-serif" font-size="20" fill="#10B981" text-anchor="middle">✓</text>
  <text x="100" y="291" class="doc-title-ok">Pièce d'identité</text>
  <text x="318" y="291" class="required">*</text>
  <text x="100" y="310" class="doc-sub-ok">Document ajouté avec succès</text>
  <text x="348" y="298" font-family="Arial, sans-serif" font-size="16" fill="#10B981" text-anchor="end">✏️</text>

  <!-- Document 2: Registre de Commerce (not uploaded) -->
  <rect x="24" y="340" width="342" height="72" rx="16" fill="#FFF" stroke="#E2E8F0" stroke-width="1"/>
  <rect x="40" y="354" width="48" height="48" rx="12" fill="#F1F5F9"/>
  <text x="64" y="384" font-family="Arial, sans-serif" font-size="20" fill="#64748B" text-anchor="middle">📄</text>
  <text x="100" y="375" class="doc-title">Registre de Commerce</text>
  <text x="100" y="394" class="doc-sub">Document RCCM ou équivalent</text>
  <text x="348" y="382" font-family="Arial, sans-serif" font-size="16" fill="#2563EB" text-anchor="end">☁️</text>

  <!-- Document 3: Photo de profil (uploaded) -->
  <rect x="24" y="424" width="342" height="72" rx="16" fill="#F0FDF4" stroke="#86EFAC" stroke-width="2"/>
  <rect x="40" y="438" width="48" height="48" rx="12" fill="rgba(16,185,129,0.1)"/>
  <text x="64" y="468" font-family="Arial, sans-serif" font-size="20" fill="#10B981" text-anchor="middle">✓</text>
  <text x="100" y="459" class="doc-title-ok">Photo de profil</text>
  <text x="260" y="459" class="required">*</text>
  <text x="100" y="478" class="doc-sub-ok">Document ajouté avec succès</text>
  <text x="348" y="466" font-family="Arial, sans-serif" font-size="16" fill="#10B981" text-anchor="end">✏️</text>

  <!-- Document 4: Justificatif de domicile (not uploaded) -->
  <rect x="24" y="508" width="342" height="72" rx="16" fill="#FFF" stroke="#E2E8F0" stroke-width="1"/>
  <rect x="40" y="522" width="48" height="48" rx="12" fill="#F1F5F9"/>
  <text x="64" y="552" font-family="Arial, sans-serif" font-size="20" fill="#64748B" text-anchor="middle">🏠</text>
  <text x="100" y="543" class="doc-title">Justificatif de domicile</text>
  <text x="100" y="562" class="doc-sub">Facture d'eau, électricité ou bail</text>
  <text x="348" y="550" font-family="Arial, sans-serif" font-size="16" fill="#2563EB" text-anchor="end">☁️</text>

  <!-- Formats acceptés -->
  <rect x="24" y="600" width="342" height="54" rx="12" fill="#F1F5F9"/>
  <text x="40" y="623" class="format-label">Formats acceptés</text>

  <!-- Format badges -->
  <rect x="168" y="609" width="38" height="22" rx="6" fill="#E2E8F0"/>
  <text x="187" y="624" class="format-badge" text-anchor="middle">JPG</text>

  <rect x="214" y="609" width="38" height="22" rx="6" fill="#E2E8F0"/>
  <text x="233" y="624" class="format-badge" text-anchor="middle">PNG</text>

  <rect x="260" y="609" width="38" height="22" rx="6" fill="#E2E8F0"/>
  <text x="279" y="624" class="format-badge" text-anchor="middle">PDF</text>

  <text x="308" y="624" class="format-hint">Max. 5 Mo</text>

  <!-- Bottom buttons -->
  <rect x="0" y="830" width="390" height="90" fill="#FFF" filter="url(#shadow)"/>

  <!-- Précédent -->
  <rect x="24" y="848" width="110" height="52" rx="12" fill="#FFF" stroke="#E2E8F0" stroke-width="1"/>
  <text x="52" y="880" class="btn-outline">Précédent</text>

  <!-- Continuer -->
  <rect x="150" y="848" width="216" height="52" rx="12" fill="#2563EB"/>
  <text x="215" y="880" class="btn-text">Continuer</text>
  <text x="305" y="880" font-family="Arial, sans-serif" font-size="18" fill="#FFF">→</text>
</svg>
