<svg xmlns="http://www.w3.org/2000/svg" viewBox="0 0 390 844" width="390" height="844">
  <defs>
    <style>
      .title { font-family: Arial, sans-serif; font-size: 16px; font-weight: 600; fill: #1E293B; }
      .hint { font-family: Arial, sans-serif; font-size: 14px; fill: #94A3B8; }
      .results { font-family: Arial, sans-serif; font-size: 14px; font-weight: 600; fill: #374151; }
      .sort { font-family: Arial, sans-serif; font-size: 13px; fill: #2563EB; }
      .card-name { font-family: Arial, sans-serif; font-size: 15px; font-weight: 600; fill: #1E293B; }
      .card-cat { font-family: Arial, sans-serif; font-size: 12px; fill: #64748B; }
      .card-loc { font-family: Arial, sans-serif; font-size: 12px; fill: #94A3B8; }
      .card-price { font-family: Arial, sans-serif; font-size: 14px; font-weight: bold; fill: #2563EB; }
      .rating { font-family: Arial, sans-serif; font-size: 12px; font-weight: 600; fill: #F59E0B; }
      .chip-active { font-family: Arial, sans-serif; font-size: 13px; fill: #FFF; font-weight: 600; }
      .chip-inactive { font-family: Arial, sans-serif; font-size: 13px; fill: #64748B; }
      .dispo { font-family: Arial, sans-serif; font-size: 11px; fill: #10B981; font-weight: 600; }
    </style>
  </defs>

  <!-- Background -->
  <rect width="390" height="844" fill="#F8FAFC"/>

  <!-- Header -->
  <rect width="390" height="110" fill="#FFF"/>
  <!-- Back -->
  <rect x="16" y="44" width="40" height="40" rx="12" fill="#F1F5F9"/>
  <text x="36" y="70" font-family="Arial, sans-serif" font-size="18" text-anchor="middle" fill="#1E293B">‹</text>
  <!-- Search input -->
  <rect x="64" y="44" width="270" height="44" rx="12" fill="#F1F5F9"/>
  <text x="82" y="71" font-family="Arial, sans-serif" font-size="16" fill="#94A3B8">🔍</text>
  <text x="104" y="72" class="hint">Restaurant Dakar...</text>
  <!-- Filter button -->
  <rect x="342" y="44" width="40" height="44" rx="12" fill="#2563EB"/>
  <text x="362" y="72" font-family="Arial, sans-serif" font-size="18" fill="#FFF" text-anchor="middle">☰</text>

  <!-- Category chips -->
  <rect x="16" y="100" width="50" height="32" rx="16" fill="#2563EB"/>
  <text x="41" y="121" class="chip-active" text-anchor="middle">Tous</text>
  <rect x="74" y="100" width="88" height="32" rx="16" fill="#F1F5F9"/>
  <text x="118" y="121" class="chip-inactive" text-anchor="middle">Restaurants</text>
  <rect x="170" y="100" width="60" height="32" rx="16" fill="#F1F5F9"/>
  <text x="200" y="121" class="chip-inactive" text-anchor="middle">Hôtels</text>
  <rect x="238" y="100" width="64" height="32" rx="16" fill="#F1F5F9"/>
  <text x="270" y="121" class="chip-inactive" text-anchor="middle">Services</text>
  <rect x="310" y="100" width="72" height="32" rx="16" fill="#F1F5F9"/>
  <text x="346" y="121" class="chip-inactive" text-anchor="middle">Transport</text>

  <!-- Results header -->
  <text x="16" y="160" class="results">24 résultats</text>
  <text x="374" y="160" class="sort" text-anchor="end">Trier : Distance ▾</text>

  <!-- Result card 1 -->
  <rect x="16" y="176" width="358" height="130" rx="12" fill="#FFF"/>
  <rect x="24" y="184" width="110" height="114" rx="10" fill="#FEE2E2"/>
  <circle cx="112" cy="200" r="14" fill="rgba(255,255,255,0.9)"/>
  <text x="112" y="205" font-family="Arial, sans-serif" font-size="12" text-anchor="middle">♡</text>
  <!-- Badge -->
  <rect x="30" y="190" width="64" height="20" rx="4" fill="#EF4444"/>
  <text x="62" y="204" font-family="Arial, sans-serif" font-size="10" fill="#FFF" text-anchor="middle">Restaurant</text>
  <!-- Info -->
  <text x="144" y="204" class="rating">⭐ 4.8</text>
  <text x="184" y="204" class="card-cat">(120 avis)</text>
  <text x="144" y="226" class="card-name">Le Ngor Restaurant</text>
  <text x="144" y="246" class="card-loc">📍 Route de Ngor, Dakar • 1.2 km</text>
  <text x="144" y="274" class="card-price">5 000 XOF</text>
  <text x="214" y="274" font-family="Arial, sans-serif" font-size="11" fill="#94A3B8">/personne</text>
  <rect x="300" y="262" width="64" height="22" rx="6" fill="#DCFCE7"/>
  <text x="332" y="277" class="dispo" text-anchor="middle">Disponible</text>

  <!-- Result card 2 -->
  <rect x="16" y="314" width="358" height="130" rx="12" fill="#FFF"/>
  <rect x="24" y="322" width="110" height="114" rx="10" fill="#DBEAFE"/>
  <circle cx="112" cy="338" r="14" fill="rgba(255,255,255,0.9)"/>
  <text x="112" y="343" font-family="Arial, sans-serif" font-size="12" text-anchor="middle">♡</text>
  <rect x="30" y="328" width="72" height="20" rx="4" fill="#3B82F6"/>
  <text x="66" y="342" font-family="Arial, sans-serif" font-size="10" fill="#FFF" text-anchor="middle">Hébergement</text>
  <text x="144" y="342" class="rating">⭐ 4.5</text>
  <text x="184" y="342" class="card-cat">(85 avis)</text>
  <text x="144" y="364" class="card-name">Hôtel Teranga</text>
  <text x="144" y="384" class="card-loc">📍 Plateau, Dakar • 2.5 km</text>
  <text x="144" y="412" class="card-price">25 000 XOF</text>
  <text x="224" y="412" font-family="Arial, sans-serif" font-size="11" fill="#94A3B8">/nuit</text>
  <rect x="300" y="400" width="64" height="22" rx="6" fill="#DCFCE7"/>
  <text x="332" y="415" class="dispo" text-anchor="middle">Disponible</text>

  <!-- Result card 3 -->
  <rect x="16" y="452" width="358" height="130" rx="12" fill="#FFF"/>
  <rect x="24" y="460" width="110" height="114" rx="10" fill="#F3E8FF"/>
  <rect x="30" y="466" width="52" height="20" rx="4" fill="#8B5CF6"/>
  <text x="56" y="480" font-family="Arial, sans-serif" font-size="10" fill="#FFF" text-anchor="middle">Service</text>
  <text x="144" y="480" class="rating">⭐ 4.9</text>
  <text x="184" y="480" class="card-cat">(64 avis)</text>
  <text x="144" y="502" class="card-name">Salon Beauté Fatou</text>
  <text x="144" y="522" class="card-loc">📍 Almadies, Dakar • 0.8 km</text>
  <text x="144" y="550" class="card-price">3 000 XOF</text>
  <rect x="300" y="538" width="64" height="22" rx="6" fill="#DCFCE7"/>
  <text x="332" y="553" class="dispo" text-anchor="middle">Disponible</text>
</svg>
