<svg xmlns="http://www.w3.org/2000/svg" viewBox="0 0 390 1100" width="390" height="1100">
  <defs>
    <style>
      .title { font-family: Arial, sans-serif; font-size: 18px; font-weight: bold; fill: #1E293B; }
      .subtitle { font-family: Arial, sans-serif; font-size: 14px; fill: #64748B; }
      .label { font-family: Arial, sans-serif; font-size: 14px; font-weight: 600; fill: #374151; }
      .body { font-family: Arial, sans-serif; font-size: 13px; fill: #64748B; }
      .step-active { font-family: Arial, sans-serif; font-size: 12px; font-weight: 700; fill: #2563EB; }
      .step-done { font-family: Arial, sans-serif; font-size: 12px; font-weight: 700; fill: #10B981; }
      .step-pending { font-family: Arial, sans-serif; font-size: 12px; fill: #94A3B8; }
      .card-name { font-family: Arial, sans-serif; font-size: 14px; font-weight: 600; fill: #1E293B; }
      .time-dispo { font-family: Arial, sans-serif; font-size: 13px; fill: #2563EB; font-weight: 600; }
      .time-busy { font-family: Arial, sans-serif; font-size: 13px; fill: #94A3B8; }
      .btn-text { font-family: Arial, sans-serif; font-size: 16px; font-weight: 600; fill: #FFF; }
      .section { font-family: Arial, sans-serif; font-size: 16px; font-weight: bold; fill: #1E293B; }
      .price { font-family: Arial, sans-serif; font-size: 16px; font-weight: bold; fill: #2563EB; }
      .input-text { font-family: Arial, sans-serif; font-size: 14px; fill: #1E293B; }
      .hint { font-family: Arial, sans-serif; font-size: 14px; fill: #94A3B8; }
    </style>
  </defs>

  <!-- Background -->
  <rect width="390" height="1100" fill="#F8FAFC"/>

  <!-- Header -->
  <rect width="390" height="100" fill="#FFF"/>
  <rect x="16" y="44" width="40" height="40" rx="12" fill="#F1F5F9"/>
  <text x="36" y="70" font-family="Arial, sans-serif" font-size="18" text-anchor="middle" fill="#1E293B">‹</text>
  <text x="195" y="72" class="title" text-anchor="middle">Réservation</text>

  <!-- Stepper -->
  <rect width="390" height="60" y="100" fill="#FFF"/>
  <!-- Step 1 - done -->
  <circle cx="60" cy="120" r="14" fill="#10B981"/>
  <text x="60" y="125" font-family="Arial, sans-serif" font-size="12" fill="#FFF" text-anchor="middle">✓</text>
  <text x="60" y="148" class="step-done" text-anchor="middle">Date</text>
  <line x1="74" y1="120" x2="140" y2="120" stroke="#10B981" stroke-width="2"/>
  <!-- Step 2 - active -->
  <circle cx="155" cy="120" r="14" fill="#2563EB"/>
  <text x="155" y="125" font-family="Arial, sans-serif" font-size="12" fill="#FFF" text-anchor="middle">2</text>
  <text x="155" y="148" class="step-active" text-anchor="middle">Ressource</text>
  <line x1="169" y1="120" x2="230" y2="120" stroke="#E2E8F0" stroke-width="2"/>
  <!-- Step 3 - pending -->
  <circle cx="245" cy="120" r="14" fill="#E2E8F0"/>
  <text x="245" y="125" font-family="Arial, sans-serif" font-size="12" fill="#94A3B8" text-anchor="middle">3</text>
  <text x="245" y="148" class="step-pending" text-anchor="middle">Détails</text>
  <line x1="259" y1="120" x2="320" y2="120" stroke="#E2E8F0" stroke-width="2"/>
  <!-- Step 4 - pending -->
  <circle cx="335" cy="120" r="14" fill="#E2E8F0"/>
  <text x="335" y="125" font-family="Arial, sans-serif" font-size="12" fill="#94A3B8" text-anchor="middle">4</text>
  <text x="335" y="148" class="step-pending" text-anchor="middle">Confirmer</text>

  <!-- Establishment summary -->
  <rect x="16" y="170" width="358" height="64" rx="12" fill="#FFF"/>
  <rect x="24" y="178" width="48" height="48" rx="8" fill="#E2E8F0"/>
  <text x="48" y="208" font-family="Arial, sans-serif" font-size="18" text-anchor="middle" fill="#94A3B8">🍽️</text>
  <text x="82" y="198" class="card-name">Le Ngor Restaurant</text>
  <text x="82" y="216" class="body">📅 Lun 15 Jan 2024</text>

  <!-- Section: Choisir une ressource -->
  <text x="24" y="260" class="section">Choisir une ressource</text>

  <!-- Resource card 1 - selected -->
  <rect x="16" y="274" width="358" height="92" rx="12" fill="#FFF" stroke="#2563EB" stroke-width="2"/>
  <circle cx="346" cy="296" r="10" fill="#2563EB"/>
  <text x="346" y="301" font-family="Arial, sans-serif" font-size="10" fill="#FFF" text-anchor="middle">✓</text>
  <rect x="28" y="286" width="56" height="56" rx="10" fill="rgba(37,99,235,0.1)"/>
  <text x="56" y="320" font-family="Arial, sans-serif" font-size="24" text-anchor="middle">🪑</text>
  <text x="96" y="306" class="card-name">Table VIP T1</text>
  <text x="96" y="324" class="body">Capacité : 8 personnes</text>
  <text x="96" y="344" class="price">5 000 XOF</text>
  <text x="168" y="344" class="body">/réservation</text>

  <!-- Resource card 2 -->
  <rect x="16" y="380" width="358" height="92" rx="12" fill="#FFF"/>
  <circle cx="346" cy="402" r="10" fill="#E2E8F0"/>
  <rect x="28" y="392" width="56" height="56" rx="10" fill="rgba(139,92,246,0.1)"/>
  <text x="56" y="426" font-family="Arial, sans-serif" font-size="24" text-anchor="middle">🪑</text>
  <text x="96" y="412" class="card-name">Table Standard T2</text>
  <text x="96" y="430" class="body">Capacité : 4 personnes</text>
  <text x="96" y="450" class="price">3 000 XOF</text>
  <text x="160" y="450" class="body">/réservation</text>

  <!-- Resource card 3 - indisponible -->
  <rect x="16" y="486" width="358" height="92" rx="12" fill="#FFF" opacity="0.5"/>
  <rect x="28" y="498" width="56" height="56" rx="10" fill="#F1F5F9"/>
  <text x="56" y="532" font-family="Arial, sans-serif" font-size="24" text-anchor="middle">🪑</text>
  <text x="96" y="518" class="card-name" fill="#94A3B8">Table T3</text>
  <text x="96" y="536" class="body">Capacité : 6 personnes</text>
  <rect x="96" y="546" width="80" height="20" rx="4" fill="#FEE2E2"/>
  <text x="136" y="560" font-family="Arial, sans-serif" font-size="10" fill="#EF4444" text-anchor="middle" font-weight="600">Indisponible</text>

  <!-- Time selection -->
  <text x="24" y="614" class="section">Choisir un créneau</text>

  <!-- Time grid -->
  <rect x="16" y="628" width="70" height="36" rx="8" fill="#F1F5F9"/>
  <text x="51" y="651" class="time-busy" text-anchor="middle">11:30</text>
  <rect x="94" y="628" width="70" height="36" rx="8" fill="#2563EB"/>
  <text x="129" y="651" font-family="Arial, sans-serif" font-size="13" fill="#FFF" text-anchor="middle" font-weight="600">12:00</text>
  <rect x="172" y="628" width="70" height="36" rx="8" fill="#F1F5F9"/>
  <text x="207" y="651" class="time-dispo" text-anchor="middle">12:30</text>
  <rect x="250" y="628" width="70" height="36" rx="8" fill="#F1F5F9"/>
  <text x="285" y="651" class="time-dispo" text-anchor="middle">13:00</text>
  <rect x="328" y="628" width="46" height="36" rx="8" fill="#F1F5F9"/>
  <text x="351" y="651" class="time-dispo" text-anchor="middle">13:30</text>

  <rect x="16" y="672" width="70" height="36" rx="8" fill="#F1F5F9"/>
  <text x="51" y="695" class="time-dispo" text-anchor="middle">19:00</text>
  <rect x="94" y="672" width="70" height="36" rx="8" fill="#F1F5F9"/>
  <text x="129" y="695" class="time-dispo" text-anchor="middle">19:30</text>
  <rect x="172" y="672" width="70" height="36" rx="8" fill="#F1F5F9"/>
  <text x="207" y="695" class="time-dispo" text-anchor="middle">20:00</text>
  <rect x="250" y="672" width="70" height="36" rx="8" fill="#F1F5F9"/>
  <text x="285" y="695" class="time-dispo" text-anchor="middle">20:30</text>

  <!-- Guest count -->
  <text x="24" y="740" class="section">Nombre de personnes</text>
  <rect x="16" y="754" width="358" height="48" rx="12" fill="#FFF"/>
  <rect x="28" y="762" width="36" height="32" rx="8" fill="#F1F5F9"/>
  <text x="46" y="783" font-family="Arial, sans-serif" font-size="16" text-anchor="middle" fill="#2563EB">−</text>
  <text x="195" y="784" font-family="Arial, sans-serif" font-size="18" font-weight="bold" fill="#1E293B" text-anchor="middle">4</text>
  <rect x="330" y="762" width="36" height="32" rx="8" fill="#F1F5F9"/>
  <text x="348" y="783" font-family="Arial, sans-serif" font-size="16" text-anchor="middle" fill="#2563EB">+</text>

  <!-- Note -->
  <text x="24" y="834" class="section">Note (optionnel)</text>
  <rect x="16" y="848" width="358" height="80" rx="12" fill="#FFF" stroke="#E2E8F0" stroke-width="1"/>
  <text x="28" y="874" class="hint">Ex: Anniversaire, allergie...</text>

  <!-- Summary -->
  <rect x="16" y="946" width="358" height="70" rx="12" fill="#EFF6FF"/>
  <text x="28" y="972" class="label">Récapitulatif</text>
  <text x="28" y="994" class="body">Table VIP • 4 pers. • 12:00</text>
  <text x="350" y="978" class="price" text-anchor="end">5 000 XOF</text>

  <!-- Bottom buttons -->
  <rect x="16" y="1036" width="170" height="48" rx="12" fill="#F1F5F9"/>
  <text x="101" y="1066" font-family="Arial, sans-serif" font-size="15" font-weight="600" fill="#64748B" text-anchor="middle">Précédent</text>
  <rect x="202" y="1036" width="172" height="48" rx="12" fill="#2563EB"/>
  <text x="288" y="1066" class="btn-text" text-anchor="middle">Suivant →</text>
</svg>
