<svg xmlns="http://www.w3.org/2000/svg" viewBox="0 0 390 844" width="390" height="844">
  <defs>
    <style>
      .title { font-family: Arial, sans-serif; font-size: 18px; font-weight: bold; fill: #1E293B; }
      .chip-active { font-family: Arial, sans-serif; font-size: 12px; fill: #FFF; font-weight: 600; }
      .chip-inactive { font-family: Arial, sans-serif; font-size: 12px; fill: #64748B; }
      .notif-title { font-family: Arial, sans-serif; font-size: 14px; font-weight: 600; fill: #1E293B; }
      .notif-body { font-family: Arial, sans-serif; font-size: 13px; fill: #64748B; }
      .notif-time { font-family: Arial, sans-serif; font-size: 11px; fill: #94A3B8; }
      .section-date { font-family: Arial, sans-serif; font-size: 13px; font-weight: 600; fill: #94A3B8; }
      .badge { font-family: Arial, sans-serif; font-size: 10px; fill: #FFF; font-weight: 600; }
    </style>
  </defs>

  <!-- Background -->
  <rect width="390" height="844" fill="#F8FAFC"/>

  <!-- Header -->
  <rect width="390" height="90" fill="#FFF"/>
  <text x="195" y="60" class="title" text-anchor="middle">Notifications</text>
  <!-- Mark all read -->
  <text x="356" y="60" font-family="Arial, sans-serif" font-size="13" fill="#2563EB" text-anchor="end" font-weight="600">Tout lire</text>

  <!-- Filter chips -->
  <rect x="16" y="98" width="54" height="32" rx="16" fill="#2563EB"/>
  <text x="43" y="119" class="chip-active" text-anchor="middle">Toutes</text>
  <rect x="78" y="98" width="90" height="32" rx="16" fill="#F1F5F9"/>
  <text x="123" y="119" class="chip-inactive" text-anchor="middle">Réservations</text>
  <rect x="176" y="98" width="72" height="32" rx="16" fill="#F1F5F9"/>
  <text x="212" y="119" class="chip-inactive" text-anchor="middle">Paiement</text>
  <rect x="256" y="98" width="52" height="32" rx="16" fill="#F1F5F9"/>
  <text x="282" y="119" class="chip-inactive" text-anchor="middle">Promo</text>

  <!-- Date separator -->
  <text x="24" y="160" class="section-date">Aujourd'hui</text>

  <!-- Notification 1 - Unread -->
  <rect x="16" y="170" width="358" height="80" rx="12" fill="#EFF6FF"/>
  <circle cx="8" cy="200" r="4" fill="#2563EB"/>
  <rect x="28" y="182" width="44" height="44" rx="10" fill="rgba(16,185,129,0.1)"/>
  <text x="50" y="210" font-family="Arial, sans-serif" font-size="20" text-anchor="middle">✅</text>
  <text x="82" y="200" class="notif-title">Réservation confirmée</text>
  <text x="82" y="218" class="notif-body">Le Ngor Restaurant - Lun 15 Jan 12:00</text>
  <text x="82" y="236" class="notif-time">Il y a 5 min</text>
  <text x="356" y="196" font-family="Arial, sans-serif" font-size="14" fill="#94A3B8" text-anchor="end">›</text>

  <!-- Notification 2 - Unread -->
  <rect x="16" y="260" width="358" height="80" rx="12" fill="#EFF6FF"/>
  <circle cx="8" cy="290" r="4" fill="#2563EB"/>
  <rect x="28" y="272" width="44" height="44" rx="10" fill="rgba(59,130,246,0.1)"/>
  <text x="50" y="300" font-family="Arial, sans-serif" font-size="20" text-anchor="middle">💳</text>
  <text x="82" y="290" class="notif-title">Paiement reçu</text>
  <text x="82" y="308" class="notif-body">5 000 XOF via Orange Money</text>
  <text x="82" y="326" class="notif-time">Il y a 8 min</text>
  <text x="356" y="286" font-family="Arial, sans-serif" font-size="14" fill="#94A3B8" text-anchor="end">›</text>

  <!-- Date separator -->
  <text x="24" y="370" class="section-date">Hier</text>

  <!-- Notification 3 - Read -->
  <rect x="16" y="380" width="358" height="80" rx="12" fill="#FFF"/>
  <rect x="28" y="392" width="44" height="44" rx="10" fill="rgba(245,158,11,0.1)"/>
  <text x="50" y="420" font-family="Arial, sans-serif" font-size="20" text-anchor="middle">⏰</text>
  <text x="82" y="410" class="notif-title">Rappel de réservation</text>
  <text x="82" y="428" class="notif-body">Salon Beauté Fatou demain à 14:00</text>
  <text x="82" y="446" class="notif-time">Il y a 1 jour</text>

  <!-- Notification 4 - Read -->
  <rect x="16" y="470" width="358" height="80" rx="12" fill="#FFF"/>
  <rect x="28" y="482" width="44" height="44" rx="10" fill="rgba(139,92,246,0.1)"/>
  <text x="50" y="510" font-family="Arial, sans-serif" font-size="20" text-anchor="middle">🎁</text>
  <text x="82" y="500" class="notif-title">Offre spéciale !</text>
  <text x="82" y="518" class="notif-body">-30% sur votre prochaine réservation hôtel</text>
  <text x="82" y="536" class="notif-time">Il y a 1 jour</text>

  <!-- Date separator -->
  <text x="24" y="580" class="section-date">Cette semaine</text>

  <!-- Notification 5 - Read -->
  <rect x="16" y="590" width="358" height="80" rx="12" fill="#FFF"/>
  <rect x="28" y="602" width="44" height="44" rx="10" fill="rgba(239,68,68,0.1)"/>
  <text x="50" y="630" font-family="Arial, sans-serif" font-size="20" text-anchor="middle">❌</text>
  <text x="82" y="620" class="notif-title">Réservation annulée</text>
  <text x="82" y="638" class="notif-body">Hôtel Teranga - Remboursement en cours</text>
  <text x="82" y="656" class="notif-time">Il y a 3 jours</text>

  <!-- Notification 6 - Read -->
  <rect x="16" y="680" width="358" height="80" rx="12" fill="#FFF"/>
  <rect x="28" y="692" width="44" height="44" rx="10" fill="rgba(37,99,235,0.1)"/>
  <text x="50" y="720" font-family="Arial, sans-serif" font-size="20" text-anchor="middle">⭐</text>
  <text x="82" y="710" class="notif-title">Donnez votre avis</text>
  <text x="82" y="728" class="notif-body">Comment s'est passé votre visite ?</text>
  <text x="82" y="746" class="notif-time">Il y a 5 jours</text>
</svg>
