<svg xmlns="http://www.w3.org/2000/svg" viewBox="0 0 390 1050" width="390" height="1050">
  <defs>
    <style>
      .title { font-family: Arial, sans-serif; font-size: 18px; font-weight: bold; fill: #1E293B; }
      .tab-active { font-family: Arial, sans-serif; font-size: 13px; font-weight: 600; fill: #2563EB; }
      .tab-inactive { font-family: Arial, sans-serif; font-size: 13px; fill: #94A3B8; }
      .label { font-family: Arial, sans-serif; font-size: 14px; font-weight: 600; fill: #374151; }
      .body { font-family: Arial, sans-serif; font-size: 13px; fill: #64748B; }
      .hint { font-family: Arial, sans-serif; font-size: 14px; fill: #94A3B8; }
      .section { font-family: Arial, sans-serif; font-size: 15px; font-weight: 600; fill: #1E293B; }
      .btn-text { font-family: Arial, sans-serif; font-size: 15px; font-weight: 600; fill: #FFF; }
      .switch-label { font-family: Arial, sans-serif; font-size: 14px; fill: #374151; }
    </style>
  </defs>

  <!-- Background -->
  <rect width="390" height="1050" fill="#F8FAFC"/>

  <!-- Header -->
  <rect width="390" height="90" fill="#FFF"/>
  <rect x="16" y="40" width="40" height="40" rx="12" fill="#F1F5F9"/>
  <text x="36" y="66" font-family="Arial, sans-serif" font-size="18" text-anchor="middle" fill="#1E293B">‹</text>
  <text x="195" y="66" class="title" text-anchor="middle">Mon établissement</text>

  <!-- Tabs -->
  <rect width="390" height="46" y="90" fill="#FFF"/>
  <text x="50" y="118" class="tab-active" text-anchor="middle">Général</text>
  <rect x="14" y="130" width="72" height="3" rx="2" fill="#2563EB"/>
  <text x="140" y="118" class="tab-inactive" text-anchor="middle">Horaires</text>
  <text x="230" y="118" class="tab-inactive" text-anchor="middle">Photos</text>
  <text x="330" y="118" class="tab-inactive" text-anchor="middle">Avancé</text>
  <line x1="0" y1="136" x2="390" y2="136" stroke="#E2E8F0" stroke-width="1"/>

  <!-- Preview card -->
  <rect x="16" y="150" width="358" height="110" rx="12" fill="#FFF"/>
  <rect x="28" y="162" width="86" height="86" rx="10" fill="#E2E8F0"/>
  <text x="71" y="212" font-family="Arial, sans-serif" font-size="28" text-anchor="middle" fill="#94A3B8">📸</text>
  <text x="124" y="186" font-family="Arial, sans-serif" font-size="16px" font-weight="bold" fill="#1E293B">Le Ngor Restaurant</text>
  <text x="124" y="206" class="body">Restaurant • Dakar</text>
  <rect x="124" y="216" width="56" height="20" rx="4" fill="#DCFCE7"/>
  <text x="152" y="230" font-family="Arial, sans-serif" font-size="10" fill="#10B981" text-anchor="middle" font-weight="600">Actif</text>
  <text x="190" y="230" font-family="Arial, sans-serif" font-size="12" fill="#F59E0B">⭐ 4.8</text>

  <!-- Form fields -->
  <text x="24" y="290" class="section">Informations générales</text>

  <!-- Nom -->
  <text x="24" y="316" class="label">Nom de l'établissement</text>
  <rect x="16" y="324" width="358" height="48" rx="12" fill="#FFF" stroke="#E2E8F0" stroke-width="1"/>
  <text x="32" y="354" font-family="Arial, sans-serif" font-size="14" fill="#1E293B">Le Ngor Restaurant</text>

  <!-- Catégorie -->
  <text x="24" y="396" class="label">Catégorie</text>
  <rect x="16" y="404" width="358" height="48" rx="12" fill="#FFF" stroke="#E2E8F0" stroke-width="1"/>
  <text x="32" y="434" font-family="Arial, sans-serif" font-size="14" fill="#1E293B">Restaurant</text>
  <text x="354" y="434" font-family="Arial, sans-serif" font-size="12" fill="#94A3B8" text-anchor="end">▾</text>

  <!-- Description -->
  <text x="24" y="476" class="label">Description</text>
  <rect x="16" y="484" width="358" height="90" rx="12" fill="#FFF" stroke="#E2E8F0" stroke-width="1"/>
  <text x="32" y="510" font-family="Arial, sans-serif" font-size="13" fill="#1E293B">Cuisine sénégalaise authentique avec</text>
  <text x="32" y="530" font-family="Arial, sans-serif" font-size="13" fill="#1E293B">vue sur l'océan. Spécialités de fruits</text>
  <text x="32" y="550" font-family="Arial, sans-serif" font-size="13" fill="#1E293B">de mer et plats traditionnels.</text>

  <!-- Adresse -->
  <text x="24" y="600" class="label">Adresse</text>
  <rect x="16" y="608" width="358" height="48" rx="12" fill="#FFF" stroke="#E2E8F0" stroke-width="1"/>
  <text x="32" y="638" font-family="Arial, sans-serif" font-size="14" fill="#1E293B">📍 Route de Ngor, Dakar</text>

  <!-- Téléphone -->
  <text x="24" y="680" class="label">Téléphone</text>
  <rect x="16" y="688" width="358" height="48" rx="12" fill="#FFF" stroke="#E2E8F0" stroke-width="1"/>
  <text x="32" y="718" font-family="Arial, sans-serif" font-size="14" fill="#1E293B">📞 +221 33 820 12 34</text>

  <!-- Gamme de prix -->
  <text x="24" y="760" class="label">Gamme de prix (XOF)</text>
  <rect x="16" y="768" width="175" height="48" rx="12" fill="#FFF" stroke="#E2E8F0" stroke-width="1"/>
  <text x="32" y="798" font-family="Arial, sans-serif" font-size="14" fill="#1E293B">5 000</text>
  <text x="103" y="798" font-family="Arial, sans-serif" font-size="12" fill="#94A3B8">Min</text>
  <rect x="199" y="768" width="175" height="48" rx="12" fill="#FFF" stroke="#E2E8F0" stroke-width="1"/>
  <text x="215" y="798" font-family="Arial, sans-serif" font-size="14" fill="#1E293B">15 000</text>
  <text x="290" y="798" font-family="Arial, sans-serif" font-size="12" fill="#94A3B8">Max</text>

  <!-- Options -->
  <text x="24" y="846" class="section">Options</text>
  <rect x="16" y="856" width="358" height="100" rx="12" fill="#FFF"/>
  <text x="28" y="882" class="switch-label">Accepte les réservations en ligne</text>
  <rect x="320" y="868" width="38" height="22" rx="11" fill="#2563EB"/>
  <circle cx="347" cy="879" r="8" fill="#FFF"/>
  <line x1="28" y1="898" x2="358" y2="898" stroke="#F1F5F9" stroke-width="1"/>
  <text x="28" y="930" class="switch-label">Visible sur la plateforme</text>
  <rect x="320" y="916" width="38" height="22" rx="11" fill="#2563EB"/>
  <circle cx="347" cy="927" r="8" fill="#FFF"/>

  <!-- Save button -->
  <rect x="16" y="982" width="358" height="48" rx="12" fill="#2563EB"/>
  <text x="195" y="1012" class="btn-text" text-anchor="middle">💾 Enregistrer les modifications</text>
</svg>
